M48
; DRILL file {KiCad 8.0.7} date 2025-03-02T11:38:07-0500
; FORMAT={-:-/ absolute / inch / decimal}
; #@! TF.CreationDate,2025-03-02T11:38:07-05:00
; #@! TF.GenerationSoftware,Kicad,Pcbnew,8.0.7
; #@! TF.FileFunction,Plated,1,2,PTH
FMAT,2
INCH
; #@! TA.AperFunction,Plated,PTH,ViaDrill
T1C0.0118
; #@! TA.AperFunction,Plated,PTH,ComponentDrill
T2C0.0300
; #@! TA.AperFunction,Plated,PTH,ComponentDrill
T3C0.0307
; #@! TA.AperFunction,Plated,PTH,ComponentDrill
T4C0.0394
; #@! TA.AperFunction,Plated,PTH,ComponentDrill
T5C0.0400
; #@! TA.AperFunction,Plated,PTH,ComponentDrill
T6C0.0433
; #@! TA.AperFunction,Plated,PTH,ComponentDrill
T7C0.0472
; #@! TA.AperFunction,Plated,PTH,ComponentDrill
T8C0.2402
%
G90
G05
T1
X1.5157Y-4.0157
X1.5551Y-4.2323
X1.6614Y-3.8957
X1.7702Y-4.0653
X1.9602Y-3.9681
X1.9882Y-4.4094
X3.1302Y-3.6005
T2
X1.7483Y-4.3381
X1.8483Y-4.3381
X2.1483Y-4.3381
X2.3483Y-4.3381
T3
X5.4776Y-3.8579
X5.4776Y-3.9579
X5.4776Y-4.0579
X5.4776Y-4.1579
X5.7902Y-3.8579
X5.7902Y-3.9579
X5.7902Y-4.0579
X5.7902Y-4.1579
T4
X3.9428Y-4.9392
X3.9428Y-5.0392
X4.0428Y-4.9392
X4.0428Y-5.0392
X4.1428Y-4.9392
X4.1428Y-5.0392
X4.1585Y-4.097
X4.2428Y-4.9392
X4.2428Y-5.0392
X4.252Y-2.4331
X4.252Y-3.3425
X5.068Y-4.097
X5.3543Y-2.4331
X5.3543Y-3.3425
T5
X1.48Y-4.93
X1.48Y-5.13
X1.48Y-5.23
X1.48Y-5.33
X1.48Y-5.53
X1.48Y-5.63
X1.48Y-5.73
X1.48Y-5.83
X1.48Y-5.93
X1.48Y-6.13
X1.48Y-6.23
X1.48Y-6.33
X1.48Y-6.43
X1.48Y-6.53
X1.48Y-6.73
X1.58Y-4.93
X1.58Y-6.73
X1.68Y-4.93
X1.68Y-6.73
X1.88Y-4.93
X1.88Y-5.03
X1.88Y-6.63
X1.88Y-6.73
X1.98Y-4.93
X1.98Y-5.03
X1.98Y-6.63
X1.98Y-6.73
X2.08Y-4.93
X2.08Y-5.03
X2.08Y-6.63
X2.08Y-6.73
X2.18Y-4.93
X2.18Y-5.03
X2.18Y-6.63
X2.18Y-6.73
X2.28Y-4.93
X2.28Y-5.03
X2.28Y-6.63
X2.28Y-6.73
X2.38Y-4.93
X2.38Y-5.03
X2.38Y-6.63
X2.38Y-6.73
X2.48Y-4.93
X2.48Y-5.03
X2.48Y-6.63
X2.48Y-6.73
X2.58Y-4.93
X2.58Y-5.03
X2.58Y-6.63
X2.58Y-6.73
X2.68Y-4.93
X2.68Y-5.03
X2.68Y-6.63
X2.68Y-6.73
X2.78Y-4.93
X2.78Y-5.03
X2.78Y-6.63
X2.78Y-6.73
X4.38Y-4.93
X4.38Y-5.03
X4.38Y-6.63
X4.38Y-6.73
X4.48Y-4.93
X4.48Y-5.03
X4.48Y-6.63
X4.48Y-6.73
X4.58Y-4.93
X4.58Y-5.03
X4.58Y-6.63
X4.58Y-6.73
X4.68Y-4.93
X4.68Y-5.03
X4.68Y-6.63
X4.68Y-6.73
X4.78Y-4.93
X4.78Y-5.03
X4.78Y-6.63
X4.78Y-6.73
X4.88Y-4.93
X4.88Y-5.03
X4.88Y-6.63
X4.88Y-6.73
X4.98Y-4.93
X4.98Y-5.03
X4.98Y-6.63
X4.98Y-6.73
X5.08Y-4.93
X5.08Y-5.03
X5.08Y-6.63
X5.08Y-6.73
X5.18Y-4.93
X5.18Y-5.03
X5.18Y-6.63
X5.18Y-6.73
X5.28Y-4.93
X5.28Y-5.03
X5.28Y-6.63
X5.28Y-6.73
T6
X3.108Y-3.5101
X3.208Y-3.5101
X3.308Y-3.5101
T7
X3.2129Y-4.2265
X3.5082Y-4.2265
T8
X1.6929Y-2.4213
X1.6929Y-3.1102
X3.3933Y-2.4244
X6.2584Y-3.1102
X6.2598Y-2.4213
M30
