%TF.GenerationSoftware,KiCad,Pcbnew,8.0.7*%
%TF.CreationDate,2025-03-01T22:58:23-05:00*%
%TF.ProjectId,MyFirstBuck,4d794669-7273-4744-9275-636b2e6b6963,v0*%
%TF.SameCoordinates,Original*%
%TF.FileFunction,Soldermask,Bot*%
%TF.FilePolarity,Negative*%
%FSLAX46Y46*%
G04 Gerber Fmt 4.6, Leading zero omitted, Abs format (unit mm)*
G04 Created by KiCad (PCBNEW 8.0.7) date 2025-03-01 22:58:23*
%MOMM*%
%LPD*%
G01*
G04 APERTURE LIST*
G04 Aperture macros list*
%AMRoundRect*
0 Rectangle with rounded corners*
0 $1 Rounding radius*
0 $2 $3 $4 $5 $6 $7 $8 $9 X,Y pos of 4 corners*
0 Add a 4 corners polygon primitive as box body*
4,1,4,$2,$3,$4,$5,$6,$7,$8,$9,$2,$3,0*
0 Add four circle primitives for the rounded corners*
1,1,$1+$1,$2,$3*
1,1,$1+$1,$4,$5*
1,1,$1+$1,$6,$7*
1,1,$1+$1,$8,$9*
0 Add four rect primitives between the rounded corners*
20,1,$1+$1,$2,$3,$4,$5,0*
20,1,$1+$1,$4,$5,$6,$7,0*
20,1,$1+$1,$6,$7,$8,$9,0*
20,1,$1+$1,$8,$9,$2,$3,0*%
G04 Aperture macros list end*
%ADD10C,2.000000*%
%ADD11R,2.400000X2.400000*%
%ADD12C,2.400000*%
%ADD13C,3.175000*%
%ADD14RoundRect,0.102000X0.939800X0.939800X-0.939800X0.939800X-0.939800X-0.939800X0.939800X-0.939800X0*%
%ADD15C,2.083600*%
%ADD16RoundRect,0.102000X0.762000X0.762000X-0.762000X0.762000X-0.762000X-0.762000X0.762000X-0.762000X0*%
%ADD17C,1.728000*%
%ADD18RoundRect,0.102000X0.750000X0.750000X-0.750000X0.750000X-0.750000X-0.750000X0.750000X-0.750000X0*%
%ADD19C,1.704000*%
%ADD20C,2.200000*%
%ADD21R,1.270000X1.270000*%
%ADD22C,1.270000*%
%ADD23C,10.160000*%
%ADD24R,1.905000X2.000000*%
%ADD25O,1.905000X2.000000*%
%ADD26RoundRect,0.102000X0.565000X0.565000X-0.565000X0.565000X-0.565000X-0.565000X0.565000X-0.565000X0*%
%ADD27C,1.334000*%
G04 APERTURE END LIST*
D10*
%TO.C,L3*%
X136000000Y-84900000D03*
X136000000Y-61800000D03*
%TD*%
%TO.C,L2*%
X108000000Y-84900000D03*
X108000000Y-61800000D03*
%TD*%
%TO.C,L1*%
X105626600Y-104063800D03*
X128726600Y-104063800D03*
%TD*%
D11*
%TO.C,C3*%
X81607400Y-107353800D03*
D12*
X89107400Y-107353800D03*
%TD*%
D13*
%TO.C,U2*%
X163322000Y-174752000D03*
X163322000Y-121412000D03*
X38862000Y-174752000D03*
X38862000Y-121412000D03*
D14*
X134112000Y-125222000D03*
D15*
X131572000Y-125222000D03*
X129032000Y-125222000D03*
X126492000Y-125222000D03*
X123952000Y-125222000D03*
X121412000Y-125222000D03*
X118872000Y-125222000D03*
X116332000Y-125222000D03*
X113792000Y-125222000D03*
X111252000Y-125222000D03*
D14*
X111252000Y-170942000D03*
D15*
X113792000Y-170942000D03*
X116332000Y-170942000D03*
X118872000Y-170942000D03*
X121412000Y-170942000D03*
X123952000Y-170942000D03*
X126492000Y-170942000D03*
X129032000Y-170942000D03*
X131572000Y-170942000D03*
X134112000Y-170942000D03*
D14*
X134112000Y-127762000D03*
D15*
X131572000Y-127762000D03*
X129032000Y-127762000D03*
X126492000Y-127762000D03*
X123952000Y-127762000D03*
X121412000Y-127762000D03*
X118872000Y-127762000D03*
X116332000Y-127762000D03*
X113792000Y-127762000D03*
X111252000Y-127762000D03*
D14*
X111252000Y-168402000D03*
D15*
X113792000Y-168402000D03*
X116332000Y-168402000D03*
X118872000Y-168402000D03*
X121412000Y-168402000D03*
X123952000Y-168402000D03*
X126492000Y-168402000D03*
X129032000Y-168402000D03*
X131572000Y-168402000D03*
X134112000Y-168402000D03*
D14*
X70612000Y-125222000D03*
D15*
X68072000Y-125222000D03*
X65532000Y-125222000D03*
X62992000Y-125222000D03*
X60452000Y-125222000D03*
X57912000Y-125222000D03*
X55372000Y-125222000D03*
X52832000Y-125222000D03*
X50292000Y-125222000D03*
X47752000Y-125222000D03*
D14*
X47752000Y-170942000D03*
D15*
X50292000Y-170942000D03*
X52832000Y-170942000D03*
X55372000Y-170942000D03*
X57912000Y-170942000D03*
X60452000Y-170942000D03*
X62992000Y-170942000D03*
X65532000Y-170942000D03*
X68072000Y-170942000D03*
X70612000Y-170942000D03*
D14*
X70612000Y-127762000D03*
D15*
X68072000Y-127762000D03*
X65532000Y-127762000D03*
X62992000Y-127762000D03*
X60452000Y-127762000D03*
X57912000Y-127762000D03*
X55372000Y-127762000D03*
X52832000Y-127762000D03*
X50292000Y-127762000D03*
X47752000Y-127762000D03*
D14*
X47752000Y-168402000D03*
D15*
X50292000Y-168402000D03*
X52832000Y-168402000D03*
X55372000Y-168402000D03*
X57912000Y-168402000D03*
X60452000Y-168402000D03*
X62992000Y-168402000D03*
X65532000Y-168402000D03*
X68072000Y-168402000D03*
X70612000Y-168402000D03*
D16*
X37592000Y-170942000D03*
D17*
X40132000Y-170942000D03*
X42672000Y-170942000D03*
D16*
X37592000Y-135382000D03*
D17*
X37592000Y-132842000D03*
X37592000Y-130302000D03*
D16*
X37592000Y-165862000D03*
D17*
X37592000Y-163322000D03*
X37592000Y-160782000D03*
X37592000Y-158242000D03*
X37592000Y-155702000D03*
D16*
X37592000Y-150622000D03*
D17*
X37592000Y-148082000D03*
X37592000Y-145542000D03*
X37592000Y-143002000D03*
X37592000Y-140462000D03*
D16*
X37592000Y-125222000D03*
D17*
X40132000Y-125222000D03*
X42672000Y-125222000D03*
D18*
X107768000Y-127996000D03*
D19*
X107768000Y-125456000D03*
X105228000Y-127996000D03*
X105228000Y-125456000D03*
X102688000Y-127996000D03*
X102688000Y-125456000D03*
X100148000Y-127996000D03*
X100148000Y-125456000D03*
%TD*%
D20*
%TO.C,REF\u002A\u002A*%
X163380000Y-180310000D03*
%TD*%
D21*
%TO.C,U4*%
X44405600Y-110189000D03*
D22*
X46945600Y-110189000D03*
X54565600Y-110189000D03*
X59645600Y-110189000D03*
%TD*%
D23*
%TO.C,J1*%
X43000000Y-61500000D03*
%TD*%
D24*
%TO.C,Q1*%
X78943200Y-89157400D03*
D25*
X81483200Y-89157400D03*
X84023200Y-89157400D03*
%TD*%
D26*
%TO.C,U1*%
X147070000Y-105610000D03*
D27*
X147070000Y-103070000D03*
X147070000Y-100530000D03*
X147070000Y-97990000D03*
X139130000Y-97990000D03*
X139130000Y-100530000D03*
X139130000Y-103070000D03*
X139130000Y-105610000D03*
%TD*%
D23*
%TO.C,J4*%
X158963000Y-79000000D03*
%TD*%
D20*
%TO.C,REF\u002A\u002A*%
X163380000Y-54160000D03*
%TD*%
D23*
%TO.C,J5*%
X86190000Y-61580000D03*
%TD*%
%TO.C,J3*%
X159000000Y-61500000D03*
%TD*%
D20*
%TO.C,REF\u002A\u002A*%
X38560000Y-54170000D03*
%TD*%
D23*
%TO.C,J2*%
X43000000Y-79000000D03*
%TD*%
D20*
%TO.C,REF\u002A\u002A*%
X38550000Y-180320000D03*
%TD*%
M02*
