%TF.GenerationSoftware,KiCad,Pcbnew,8.0.7*%
%TF.CreationDate,2025-03-01T22:04:56-05:00*%
%TF.ProjectId,MyFirstBuck,4d794669-7273-4744-9275-636b2e6b6963,v0*%
%TF.SameCoordinates,Original*%
%TF.FileFunction,Soldermask,Top*%
%TF.FilePolarity,Negative*%
%FSLAX46Y46*%
G04 Gerber Fmt 4.6, Leading zero omitted, Abs format (unit mm)*
G04 Created by KiCad (PCBNEW 8.0.7) date 2025-03-01 22:04:56*
%MOMM*%
%LPD*%
G01*
G04 APERTURE LIST*
G04 Aperture macros list*
%AMRoundRect*
0 Rectangle with rounded corners*
0 $1 Rounding radius*
0 $2 $3 $4 $5 $6 $7 $8 $9 X,Y pos of 4 corners*
0 Add a 4 corners polygon primitive as box body*
4,1,4,$2,$3,$4,$5,$6,$7,$8,$9,$2,$3,0*
0 Add four circle primitives for the rounded corners*
1,1,$1+$1,$2,$3*
1,1,$1+$1,$4,$5*
1,1,$1+$1,$6,$7*
1,1,$1+$1,$8,$9*
0 Add four rect primitives between the rounded corners*
20,1,$1+$1,$2,$3,$4,$5,0*
20,1,$1+$1,$4,$5,$6,$7,0*
20,1,$1+$1,$6,$7,$8,$9,0*
20,1,$1+$1,$8,$9,$2,$3,0*%
G04 Aperture macros list end*
%ADD10C,5.200000*%
%ADD11RoundRect,0.250000X-0.650000X1.500000X-0.650000X-1.500000X0.650000X-1.500000X0.650000X1.500000X0*%
%ADD12RoundRect,0.250001X0.462499X0.624999X-0.462499X0.624999X-0.462499X-0.624999X0.462499X-0.624999X0*%
%ADD13RoundRect,0.250001X-0.462499X-0.624999X0.462499X-0.624999X0.462499X0.624999X-0.462499X0.624999X0*%
%ADD14R,2.400000X2.400000*%
%ADD15C,2.400000*%
%ADD16C,3.175000*%
%ADD17RoundRect,0.102000X0.939800X0.939800X-0.939800X0.939800X-0.939800X-0.939800X0.939800X-0.939800X0*%
%ADD18C,2.083600*%
%ADD19RoundRect,0.102000X0.762000X0.762000X-0.762000X0.762000X-0.762000X-0.762000X0.762000X-0.762000X0*%
%ADD20C,1.728000*%
%ADD21RoundRect,0.102000X0.750000X0.750000X-0.750000X0.750000X-0.750000X-0.750000X0.750000X-0.750000X0*%
%ADD22C,1.704000*%
%ADD23RoundRect,0.250000X0.350000X0.450000X-0.350000X0.450000X-0.350000X-0.450000X0.350000X-0.450000X0*%
%ADD24C,2.200000*%
%ADD25R,1.270000X1.270000*%
%ADD26C,1.270000*%
%ADD27C,10.160000*%
%ADD28R,1.905000X2.000000*%
%ADD29O,1.905000X2.000000*%
%ADD30RoundRect,0.250000X-0.350000X-0.450000X0.350000X-0.450000X0.350000X0.450000X-0.350000X0.450000X0*%
%ADD31RoundRect,0.250000X-0.625000X0.400000X-0.625000X-0.400000X0.625000X-0.400000X0.625000X0.400000X0*%
%ADD32R,1.701800X0.558800*%
%ADD33RoundRect,0.250000X0.450000X-0.350000X0.450000X0.350000X-0.450000X0.350000X-0.450000X-0.350000X0*%
%ADD34RoundRect,0.250000X-0.337500X-0.475000X0.337500X-0.475000X0.337500X0.475000X-0.337500X0.475000X0*%
%ADD35RoundRect,0.250000X0.412500X0.650000X-0.412500X0.650000X-0.412500X-0.650000X0.412500X-0.650000X0*%
%ADD36RoundRect,0.102000X0.565000X0.565000X-0.565000X0.565000X-0.565000X-0.565000X0.565000X-0.565000X0*%
%ADD37C,1.334000*%
%ADD38RoundRect,0.250000X-1.500000X-0.650000X1.500000X-0.650000X1.500000X0.650000X-1.500000X0.650000X0*%
%ADD39RoundRect,0.250000X0.337500X0.475000X-0.337500X0.475000X-0.337500X-0.475000X0.337500X-0.475000X0*%
%ADD40RoundRect,0.250000X0.475000X-0.337500X0.475000X0.337500X-0.475000X0.337500X-0.475000X-0.337500X0*%
G04 APERTURE END LIST*
D10*
%TO.C,L2*%
X108000000Y-84900000D03*
X108000000Y-61000000D03*
%TD*%
D11*
%TO.C,D1*%
X96164400Y-92369000D03*
X96164400Y-97369000D03*
%TD*%
D12*
%TO.C,D2*%
X56005000Y-106410000D03*
X53030000Y-106410000D03*
%TD*%
D13*
%TO.C,D7*%
X62622500Y-82940000D03*
X65597500Y-82940000D03*
%TD*%
D14*
%TO.C,C3*%
X81607400Y-107353800D03*
D15*
X89107400Y-107353800D03*
%TD*%
D16*
%TO.C,U2*%
X163322000Y-174752000D03*
X163322000Y-121412000D03*
X38862000Y-174752000D03*
X38862000Y-121412000D03*
D17*
X134112000Y-125222000D03*
D18*
X131572000Y-125222000D03*
X129032000Y-125222000D03*
X126492000Y-125222000D03*
X123952000Y-125222000D03*
X121412000Y-125222000D03*
X118872000Y-125222000D03*
X116332000Y-125222000D03*
X113792000Y-125222000D03*
X111252000Y-125222000D03*
D17*
X111252000Y-170942000D03*
D18*
X113792000Y-170942000D03*
X116332000Y-170942000D03*
X118872000Y-170942000D03*
X121412000Y-170942000D03*
X123952000Y-170942000D03*
X126492000Y-170942000D03*
X129032000Y-170942000D03*
X131572000Y-170942000D03*
X134112000Y-170942000D03*
D17*
X134112000Y-127762000D03*
D18*
X131572000Y-127762000D03*
X129032000Y-127762000D03*
X126492000Y-127762000D03*
X123952000Y-127762000D03*
X121412000Y-127762000D03*
X118872000Y-127762000D03*
X116332000Y-127762000D03*
X113792000Y-127762000D03*
X111252000Y-127762000D03*
D17*
X111252000Y-168402000D03*
D18*
X113792000Y-168402000D03*
X116332000Y-168402000D03*
X118872000Y-168402000D03*
X121412000Y-168402000D03*
X123952000Y-168402000D03*
X126492000Y-168402000D03*
X129032000Y-168402000D03*
X131572000Y-168402000D03*
X134112000Y-168402000D03*
D17*
X70612000Y-125222000D03*
D18*
X68072000Y-125222000D03*
X65532000Y-125222000D03*
X62992000Y-125222000D03*
X60452000Y-125222000D03*
X57912000Y-125222000D03*
X55372000Y-125222000D03*
X52832000Y-125222000D03*
X50292000Y-125222000D03*
X47752000Y-125222000D03*
D17*
X47752000Y-170942000D03*
D18*
X50292000Y-170942000D03*
X52832000Y-170942000D03*
X55372000Y-170942000D03*
X57912000Y-170942000D03*
X60452000Y-170942000D03*
X62992000Y-170942000D03*
X65532000Y-170942000D03*
X68072000Y-170942000D03*
X70612000Y-170942000D03*
D17*
X70612000Y-127762000D03*
D18*
X68072000Y-127762000D03*
X65532000Y-127762000D03*
X62992000Y-127762000D03*
X60452000Y-127762000D03*
X57912000Y-127762000D03*
X55372000Y-127762000D03*
X52832000Y-127762000D03*
X50292000Y-127762000D03*
X47752000Y-127762000D03*
D17*
X47752000Y-168402000D03*
D18*
X50292000Y-168402000D03*
X52832000Y-168402000D03*
X55372000Y-168402000D03*
X57912000Y-168402000D03*
X60452000Y-168402000D03*
X62992000Y-168402000D03*
X65532000Y-168402000D03*
X68072000Y-168402000D03*
X70612000Y-168402000D03*
D19*
X37592000Y-170942000D03*
D20*
X40132000Y-170942000D03*
X42672000Y-170942000D03*
D19*
X37592000Y-135382000D03*
D20*
X37592000Y-132842000D03*
X37592000Y-130302000D03*
D19*
X37592000Y-165862000D03*
D20*
X37592000Y-163322000D03*
X37592000Y-160782000D03*
X37592000Y-158242000D03*
X37592000Y-155702000D03*
D19*
X37592000Y-150622000D03*
D20*
X37592000Y-148082000D03*
X37592000Y-145542000D03*
X37592000Y-143002000D03*
X37592000Y-140462000D03*
D19*
X37592000Y-125222000D03*
D20*
X40132000Y-125222000D03*
X42672000Y-125222000D03*
D21*
X107768000Y-127996000D03*
D22*
X107768000Y-125456000D03*
X105228000Y-127996000D03*
X105228000Y-125456000D03*
X102688000Y-127996000D03*
X102688000Y-125456000D03*
X100148000Y-127996000D03*
X100148000Y-125456000D03*
%TD*%
D23*
%TO.C,R5*%
X56060000Y-103500000D03*
X54060000Y-103500000D03*
%TD*%
D24*
%TO.C,REF\u002A\u002A*%
X163380000Y-180310000D03*
%TD*%
D25*
%TO.C,U4*%
X44405600Y-110189000D03*
D26*
X46945600Y-110189000D03*
X54565600Y-110189000D03*
X59645600Y-110189000D03*
%TD*%
D27*
%TO.C,J1*%
X43000000Y-61500000D03*
%TD*%
D23*
%TO.C,R2*%
X158620000Y-108370000D03*
X156620000Y-108370000D03*
%TD*%
%TO.C,R8*%
X42560000Y-101110000D03*
X40560000Y-101110000D03*
%TD*%
D12*
%TO.C,D5*%
X42662500Y-103970200D03*
X39687500Y-103970200D03*
%TD*%
D23*
%TO.C,R7*%
X149350000Y-111350000D03*
X147350000Y-111350000D03*
%TD*%
D12*
%TO.C,D4*%
X149391500Y-115090000D03*
X146416500Y-115090000D03*
%TD*%
D28*
%TO.C,Q1*%
X78943200Y-89157400D03*
D29*
X81483200Y-89157400D03*
X84023200Y-89157400D03*
%TD*%
D30*
%TO.C,R9*%
X38550000Y-91500000D03*
X40550000Y-91500000D03*
%TD*%
D31*
%TO.C,R12*%
X72700000Y-96320000D03*
X72700000Y-99420000D03*
%TD*%
D32*
%TO.C,U3*%
X48565200Y-93155000D03*
X48565200Y-94425000D03*
X48565200Y-95695000D03*
X48565200Y-96965000D03*
X59334800Y-96965000D03*
X59334800Y-95695000D03*
X59334800Y-94425000D03*
X59334800Y-93155000D03*
%TD*%
D12*
%TO.C,D3*%
X71430000Y-116020000D03*
X68455000Y-116020000D03*
%TD*%
D33*
%TO.C,R10*%
X68760000Y-94120000D03*
X68760000Y-92120000D03*
%TD*%
D34*
%TO.C,C1*%
X156662500Y-101610000D03*
X158737500Y-101610000D03*
%TD*%
D35*
%TO.C,C5*%
X151452500Y-91180000D03*
X148327500Y-91180000D03*
%TD*%
D36*
%TO.C,U1*%
X147070000Y-105610000D03*
D37*
X147070000Y-103070000D03*
X147070000Y-100530000D03*
X147070000Y-97990000D03*
X139130000Y-97990000D03*
X139130000Y-100530000D03*
X139130000Y-103070000D03*
X139130000Y-105610000D03*
%TD*%
D23*
%TO.C,R1*%
X158680000Y-104640000D03*
X156680000Y-104640000D03*
%TD*%
D34*
%TO.C,C12*%
X59352500Y-106470000D03*
X61427500Y-106470000D03*
%TD*%
D27*
%TO.C,J4*%
X158963000Y-79000000D03*
%TD*%
D33*
%TO.C,R11*%
X64893000Y-94190000D03*
X64893000Y-92190000D03*
%TD*%
D38*
%TO.C,D6*%
X62752500Y-88070000D03*
X67752500Y-88070000D03*
%TD*%
D10*
%TO.C,L3*%
X136000000Y-84900000D03*
X136000000Y-61000000D03*
%TD*%
D39*
%TO.C,C7*%
X56047500Y-100550000D03*
X53972500Y-100550000D03*
%TD*%
D30*
%TO.C,R4*%
X151500000Y-95000000D03*
X153500000Y-95000000D03*
%TD*%
D34*
%TO.C,C4*%
X81620200Y-92907400D03*
X83695200Y-92907400D03*
%TD*%
D24*
%TO.C,REF\u002A\u002A*%
X163380000Y-54160000D03*
%TD*%
D27*
%TO.C,J5*%
X86190000Y-61580000D03*
%TD*%
D40*
%TO.C,C9*%
X43820000Y-91537500D03*
X43820000Y-89462500D03*
%TD*%
D34*
%TO.C,C11*%
X59352500Y-103550000D03*
X61427500Y-103550000D03*
%TD*%
D27*
%TO.C,J3*%
X159000000Y-61500000D03*
%TD*%
D24*
%TO.C,REF\u002A\u002A*%
X38560000Y-54170000D03*
%TD*%
D27*
%TO.C,J2*%
X43000000Y-79000000D03*
%TD*%
D34*
%TO.C,C6*%
X44429300Y-106853800D03*
X46504300Y-106853800D03*
%TD*%
D10*
%TO.C,L1*%
X105626600Y-104063800D03*
X129526600Y-104063800D03*
%TD*%
D24*
%TO.C,REF\u002A\u002A*%
X38550000Y-180320000D03*
%TD*%
D34*
%TO.C,C10*%
X59382500Y-100540000D03*
X61457500Y-100540000D03*
%TD*%
D23*
%TO.C,R13*%
X57540000Y-83100000D03*
X55540000Y-83100000D03*
%TD*%
%TO.C,R3*%
X158700000Y-98620000D03*
X156700000Y-98620000D03*
%TD*%
D34*
%TO.C,C2*%
X139092500Y-111360000D03*
X141167500Y-111360000D03*
%TD*%
D23*
%TO.C,R6*%
X71462500Y-113070000D03*
X69462500Y-113070000D03*
%TD*%
D39*
%TO.C,C8*%
X43907500Y-95020000D03*
X41832500Y-95020000D03*
%TD*%
M02*
