%TF.GenerationSoftware,KiCad,Pcbnew,8.0.7*%
%TF.CreationDate,2025-03-01T21:54:35-05:00*%
%TF.ProjectId,MyFirstBuck,4d794669-7273-4744-9275-636b2e6b6963,v0*%
%TF.SameCoordinates,Original*%
%TF.FileFunction,Paste,Top*%
%TF.FilePolarity,Positive*%
%FSLAX46Y46*%
G04 Gerber Fmt 4.6, Leading zero omitted, Abs format (unit mm)*
G04 Created by KiCad (PCBNEW 8.0.7) date 2025-03-01 21:54:35*
%MOMM*%
%LPD*%
G01*
G04 APERTURE LIST*
G04 Aperture macros list*
%AMRoundRect*
0 Rectangle with rounded corners*
0 $1 Rounding radius*
0 $2 $3 $4 $5 $6 $7 $8 $9 X,Y pos of 4 corners*
0 Add a 4 corners polygon primitive as box body*
4,1,4,$2,$3,$4,$5,$6,$7,$8,$9,$2,$3,0*
0 Add four circle primitives for the rounded corners*
1,1,$1+$1,$2,$3*
1,1,$1+$1,$4,$5*
1,1,$1+$1,$6,$7*
1,1,$1+$1,$8,$9*
0 Add four rect primitives between the rounded corners*
20,1,$1+$1,$2,$3,$4,$5,0*
20,1,$1+$1,$4,$5,$6,$7,0*
20,1,$1+$1,$6,$7,$8,$9,0*
20,1,$1+$1,$8,$9,$2,$3,0*%
G04 Aperture macros list end*
%ADD10RoundRect,0.250000X-0.650000X1.500000X-0.650000X-1.500000X0.650000X-1.500000X0.650000X1.500000X0*%
%ADD11RoundRect,0.250001X0.462499X0.624999X-0.462499X0.624999X-0.462499X-0.624999X0.462499X-0.624999X0*%
%ADD12RoundRect,0.250001X-0.462499X-0.624999X0.462499X-0.624999X0.462499X0.624999X-0.462499X0.624999X0*%
%ADD13RoundRect,0.250000X0.350000X0.450000X-0.350000X0.450000X-0.350000X-0.450000X0.350000X-0.450000X0*%
%ADD14RoundRect,0.250000X-0.350000X-0.450000X0.350000X-0.450000X0.350000X0.450000X-0.350000X0.450000X0*%
%ADD15RoundRect,0.250000X-0.625000X0.400000X-0.625000X-0.400000X0.625000X-0.400000X0.625000X0.400000X0*%
%ADD16R,1.701800X0.558800*%
%ADD17RoundRect,0.250000X0.450000X-0.350000X0.450000X0.350000X-0.450000X0.350000X-0.450000X-0.350000X0*%
%ADD18RoundRect,0.250000X-0.337500X-0.475000X0.337500X-0.475000X0.337500X0.475000X-0.337500X0.475000X0*%
%ADD19RoundRect,0.250000X0.412500X0.650000X-0.412500X0.650000X-0.412500X-0.650000X0.412500X-0.650000X0*%
%ADD20RoundRect,0.250000X-1.500000X-0.650000X1.500000X-0.650000X1.500000X0.650000X-1.500000X0.650000X0*%
%ADD21RoundRect,0.250000X0.337500X0.475000X-0.337500X0.475000X-0.337500X-0.475000X0.337500X-0.475000X0*%
%ADD22RoundRect,0.250000X0.475000X-0.337500X0.475000X0.337500X-0.475000X0.337500X-0.475000X-0.337500X0*%
G04 APERTURE END LIST*
D10*
%TO.C,D1*%
X96164400Y-92369000D03*
X96164400Y-97369000D03*
%TD*%
D11*
%TO.C,D2*%
X56005000Y-106410000D03*
X53030000Y-106410000D03*
%TD*%
D12*
%TO.C,D7*%
X62622500Y-82940000D03*
X65597500Y-82940000D03*
%TD*%
D13*
%TO.C,R5*%
X56060000Y-103500000D03*
X54060000Y-103500000D03*
%TD*%
%TO.C,R2*%
X158620000Y-108370000D03*
X156620000Y-108370000D03*
%TD*%
%TO.C,R8*%
X42560000Y-101110000D03*
X40560000Y-101110000D03*
%TD*%
D11*
%TO.C,D5*%
X42662500Y-103970200D03*
X39687500Y-103970200D03*
%TD*%
D13*
%TO.C,R7*%
X149350000Y-111350000D03*
X147350000Y-111350000D03*
%TD*%
D11*
%TO.C,D4*%
X149391500Y-115090000D03*
X146416500Y-115090000D03*
%TD*%
D14*
%TO.C,R9*%
X38550000Y-91500000D03*
X40550000Y-91500000D03*
%TD*%
D15*
%TO.C,R12*%
X72700000Y-96320000D03*
X72700000Y-99420000D03*
%TD*%
D16*
%TO.C,U3*%
X48565200Y-93155000D03*
X48565200Y-94425000D03*
X48565200Y-95695000D03*
X48565200Y-96965000D03*
X59334800Y-96965000D03*
X59334800Y-95695000D03*
X59334800Y-94425000D03*
X59334800Y-93155000D03*
%TD*%
D11*
%TO.C,D3*%
X71430000Y-116020000D03*
X68455000Y-116020000D03*
%TD*%
D17*
%TO.C,R10*%
X68760000Y-94120000D03*
X68760000Y-92120000D03*
%TD*%
D18*
%TO.C,C1*%
X156662500Y-101610000D03*
X158737500Y-101610000D03*
%TD*%
D19*
%TO.C,C5*%
X151452500Y-91180000D03*
X148327500Y-91180000D03*
%TD*%
D13*
%TO.C,R1*%
X158680000Y-104640000D03*
X156680000Y-104640000D03*
%TD*%
D18*
%TO.C,C12*%
X59352500Y-106470000D03*
X61427500Y-106470000D03*
%TD*%
D17*
%TO.C,R11*%
X64893000Y-94190000D03*
X64893000Y-92190000D03*
%TD*%
D20*
%TO.C,D6*%
X62752500Y-88070000D03*
X67752500Y-88070000D03*
%TD*%
D21*
%TO.C,C7*%
X56047500Y-100550000D03*
X53972500Y-100550000D03*
%TD*%
D14*
%TO.C,R4*%
X151500000Y-95000000D03*
X153500000Y-95000000D03*
%TD*%
D18*
%TO.C,C4*%
X81620200Y-92907400D03*
X83695200Y-92907400D03*
%TD*%
D22*
%TO.C,C9*%
X43820000Y-91537500D03*
X43820000Y-89462500D03*
%TD*%
D18*
%TO.C,C11*%
X59352500Y-103550000D03*
X61427500Y-103550000D03*
%TD*%
%TO.C,C6*%
X44429300Y-106853800D03*
X46504300Y-106853800D03*
%TD*%
%TO.C,C10*%
X59382500Y-100540000D03*
X61457500Y-100540000D03*
%TD*%
D13*
%TO.C,R13*%
X57540000Y-83100000D03*
X55540000Y-83100000D03*
%TD*%
%TO.C,R3*%
X158700000Y-98620000D03*
X156700000Y-98620000D03*
%TD*%
D18*
%TO.C,C2*%
X139092500Y-111360000D03*
X141167500Y-111360000D03*
%TD*%
D13*
%TO.C,R6*%
X71462500Y-113070000D03*
X69462500Y-113070000D03*
%TD*%
D21*
%TO.C,C8*%
X43907500Y-95020000D03*
X41832500Y-95020000D03*
%TD*%
M02*
